PathFileType	4	(X/Y/Z)	/Users/itak/Documents/Research/Walk-IL/dataset/trc/00536_00009.trc
DataRate	CameraRate	NumFrames	NumMarkers	Units	OrigDataRate	OrigDataStartFrame	OrigNumFrames
100.000000	100.000000	4	53	mm	100.000000	97	776
Frame#	Time	RPSI			LPSI			L3			STRN			T10			C7			CLAV			RBAK			LBAK			LSHO			LUPA			LAEL			LAOL			LWTS			LWPS			LFRA			LHPS			LHTS			RSHO			RUPA			RAEL			RAOL			RWTS			RWPS			RFRA			RIFD			RHTS			RHPS			RBHD			LFHD			RFHD			LBHD			LHIP			RHIP			RASI			LASI			LKNE			LTHI			LANK			LTIP			LTOE			LMT1			LMT5			LHEE			RKNE			RTHI			RANK			RTIP			RTOE			RMT1			RMT5			RHEE			LIFD			
		X1	Y1	Z1	X2	Y2	Z2	X3	Y3	Z3	X4	Y4	Z4	X5	Y5	Z5	X6	Y6	Z6	X7	Y7	Z7	X8	Y8	Z8	X9	Y9	Z9	X10	Y10	Z10	X11	Y11	Z11	X12	Y12	Z12	X13	Y13	Z13	X14	Y14	Z14	X15	Y15	Z15	X16	Y16	Z16	X17	Y17	Z17	X18	Y18	Z18	X19	Y19	Z19	X20	Y20	Z20	X21	Y21	Z21	X22	Y22	Z22	X23	Y23	Z23	X24	Y24	Z24	X25	Y25	Z25	X26	Y26	Z26	X27	Y27	Z27	X28	Y28	Z28	X29	Y29	Z29	X30	Y30	Z30	X31	Y31	Z31	X32	Y32	Z32	X33	Y33	Z33	X34	Y34	Z34	X35	Y35	Z35	X36	Y36	Z36	X37	Y37	Z37	X38	Y38	Z38	X39	Y39	Z39	X40	Y40	Z40	X41	Y41	Z41	X42	Y42	Z42	X43	Y43	Z43	X44	Y44	Z44	X45	Y45	Z45	X46	Y46	Z46	X47	Y47	Z47	X48	Y48	Z48	X49	Y49	Z49	X50	Y50	Z50	X51	Y51	Z51	X52	Y52	Z52	X53	Y53	Z53	

98	0.97	-1309.177001953125	1019.005126953125	506.4086303710938	-1307.989624023438	1022.333557128906	372.551025390625	-1304.27685546875	1109.23388671875	435.8289489746094	-1079.846801757812	1294.1015625	423.8421325683594	-1321.283325195312	1234.123168945312	435.3641357421875	-1273.201293945312	1507.319702148438	443.8807067871094	-1098.630981445312	1405.633056640625	425.2053527832031	-1339.853149414062	1382.853881835938	536.7484130859375	-1309.836059570312	1454.550903320312	352.0438842773438	-1212.774780273438	1476.680419921875	266.8603210449219	-1220.311645507812	1349.288940429688	187.4998779296875	-1189.479248046875	1127.286743164062	165.3861236572266	-1270.334106445312	1114.204467773438	224.1600494384766	-1081.1962890625	889.489990234375	199.6248931884766	-1133.59765625	863.5046997070312	134.8092803955078	-1163.470092773438	1041.974487304688	156.7233276367188	-1121.321655273438	803.5693969726562	141.6654663085938	-1062.064453125	812.9346313476562	176.2668609619141	-1204.156372070312	1468.124755859375	596.26220703125	-1216.24462890625	1403.128173828125	666.0036010742188	-1209.257568359375	1111.558227539062	709.8921508789062	-1265.041381835938	1094.2490234375	686.7163696289062	-1077.327026367188	893.041015625	655.3156127929688	-1114.341430664062	872.1102905273438	725.6627197265625	-1196.57080078125	1056.261352539062	714.8191528320312	-1063.40966796875	719.8189086914062	658.96484375	-1046.65966796875	802.0060424804688	667.6376342773438	-1095.589477539062	798.486328125	723.3028564453125	-1206.2294921875	1683.570678710938	499.0964965820312	-1042.408325195312	1711.248168945312	373.9969177246094	-1068.787719726562	1709.0908203125	515.5414428710938	-1168.172973632812	1684.776123046875	337.5390014648438	-1183.403076171875	939.10107421875	240.9234771728516	-1187.594360351562	940.5274658203125	626.2401733398438	-1100.294921875	968.4564819335938	568.4949951171875	-1103.24755859375	963.1453247070312	291.0726318359375	-1170.682250976562	493.2608947753906	305.0765686035156	-1164.187744140625	656.8165283203125	264.9066467285156	-1250.639770507812	29.36615180969238	320.1387634277344	-1235.246459960938	249.3857116699219	303.8336486816406	-1037.236083984375	36.92239761352539	365.6991882324219	-1107.3076171875	41.6757926940918	404.97607421875	-1129.75634765625	31.74871063232422	297.6420593261719	-1315.759033203125	33.31652069091797	379.2116394042969	-1186.381469726562	494.7098083496094	584.5781860351562	-1156.547729492188	784.6209106445312	624.2461547851562	-1281.796508789062	36.27296829223633	572.1796264648438	-1193.089965820312	352.4418334960938	573.5325317382812	-1058.987182617188	36.37870025634766	541.9154052734375	-1120.183349609375	35.85100555419922	496.6809387207031	-1149.194702148438	36.82878875732422	597.3343505859375	-1334.129272460938	27.36425018310547	514.9028930664062	-1074.923583984375	718.7549438476562	193.5965270996094	
99	0.98	-1309.026977539062	1019.005920410156	506.0309753417969	-1307.883422851562	1022.320129394531	372.2551879882812	-1304.127807617188	1109.249877929688	435.4630432128906	-1079.623046875	1294.103637695312	423.5481872558594	-1321.121704101562	1234.126708984375	435.0149230957031	-1273.096557617188	1507.339111328125	443.4689025878906	-1098.500244140625	1405.576171875	424.9468078613281	-1339.72021484375	1382.859985351562	536.3534545898438	-1309.644653320312	1454.522583007812	351.65283203125	-1212.55810546875	1476.696899414062	266.5242004394531	-1220.068725585938	1349.259643554688	187.1503448486328	-1189.30859375	1127.248901367188	165.1161651611328	-1270.14013671875	1114.175903320312	223.8654632568359	-1081.142822265625	889.4591674804688	199.4360198974609	-1133.318481445312	863.5653076171875	134.3996429443359	-1163.272094726562	1041.976806640625	156.434814453125	-1121.113525390625	803.5678100585938	141.4524841308594	-1061.866821289062	812.908203125	175.9944152832031	-1204.046508789062	1468.157104492188	595.9256591796875	-1216.174438476562	1403.137817382812	665.6389770507812	-1209.298095703125	1111.589965820312	709.667236328125	-1264.989624023438	1094.265258789062	686.4088134765625	-1077.31884765625	893.0496826171875	655.19287109375	-1114.344116210938	872.1361694335938	725.4410400390625	-1196.5234375	1056.286499023438	714.5564575195312	-1063.201416015625	719.8189086914062	658.6410522460938	-1046.60009765625	802.0317993164062	667.4231567382812	-1095.510375976562	798.488037109375	723.0565795898438	-1206.046875	1683.57080078125	498.7373657226562	-1042.203491210938	1711.230224609375	373.6472778320312	-1068.664306640625	1709.114135742188	515.2003173828125	-1167.995483398438	1684.7548828125	337.1446838378906	-1183.31201171875	939.170654296875	240.5379638671875	-1187.5810546875	940.5449829101562	626.0220947265625	-1100.124633789062	968.477783203125	568.1752319335938	-1102.87255859375	963.1732177734375	290.705322265625	-1170.530639648438	493.2564392089844	304.9656982421875	-1164.094848632812	656.8324584960938	264.7469177246094	-1250.637084960938	29.36270332336426	320.144287109375	-1235.158081054688	249.3829803466797	303.7418518066406	-1037.234985351562	36.92144012451172	365.6975708007812	-1107.304321289062	41.67203521728516	404.9737243652344	-1129.758544921875	31.7471981048584	297.6446838378906	-1315.756225585938	33.31832122802734	379.2146606445312	-1186.267700195312	494.7065734863281	584.4103393554688	-1156.463500976562	784.6284790039062	624.0067749023438	-1281.79833984375	36.26470947265625	572.1921997070312	-1193.059936523438	352.4529418945312	573.4652709960938	-1058.99560546875	36.3773193359375	541.92919921875	-1120.186767578125	35.85441207885742	496.6888427734375	-1149.1884765625	36.81326293945312	597.3375244140625	-1334.127197265625	27.36271095275879	514.91064453125	-1074.693359375	718.7312622070312	193.3191680908203	
100	0.99	-1308.870361328125	1019.00830078125	505.6339721679688	-1307.786254882812	1022.306884765625	371.9587097167969	-1303.984008789062	1109.269775390625	435.0979919433594	-1079.396118164062	1294.114379882812	423.2378234863281	-1320.940795898438	1234.128173828125	434.6418762207031	-1272.992309570312	1507.357177734375	443.0389709472656	-1098.421875	1405.49853515625	424.7098388671875	-1339.591674804688	1382.864868164062	535.9471435546875	-1309.452270507812	1454.496948242188	351.24169921875	-1212.32568359375	1476.703979492188	266.1658020019531	-1219.81591796875	1349.22216796875	186.7861938476562	-1189.140380859375	1127.2099609375	164.8325653076172	-1269.940551757812	1114.143676757812	223.5454559326172	-1081.076782226562	889.4073486328125	199.2638244628906	-1133.04833984375	863.6038208007812	133.9790344238281	-1163.081176757812	1041.981689453125	156.1519317626953	-1120.906616210938	803.58154296875	141.2365112304688	-1061.673950195312	812.8690795898438	175.7067565917969	-1203.933349609375	1468.195190429688	595.5599975585938	-1216.111572265625	1403.14892578125	665.2815551757812	-1209.326782226562	1111.62255859375	709.4159545898438	-1264.940673828125	1094.282836914062	686.08740234375	-1077.308471679688	893.0510864257812	655.0531005859375	-1114.36083984375	872.165771484375	725.234375	-1196.4775390625	1056.3115234375	714.2743530273438	-1062.998291015625	719.8273315429688	658.298583984375	-1046.528442382812	802.0717163085938	667.1842041015625	-1095.441528320312	798.487060546875	722.7898559570312	-1205.8681640625	1683.564331054688	498.3551940917969	-1042.000122070312	1711.215942382812	373.2932434082031	-1068.533935546875	1709.133056640625	514.8338012695312	-1167.80810546875	1684.734497070312	336.73828125	-1183.212158203125	939.2333984375	240.1420440673828	-1187.56689453125	940.564453125	625.7825317382812	-1099.988891601562	968.4904174804688	567.8704223632812	-1102.59375	963.1497802734375	290.3916320800781	-1170.39501953125	493.23681640625	304.8435668945312	-1163.990112304688	656.8240966796875	264.564697265625	-1250.638305664062	29.36019515991211	320.1471557617188	-1235.0830078125	249.3753356933594	303.6572265625	-1037.235595703125	36.92156600952148	365.6963500976562	-1107.298217773438	41.66909408569336	404.9683227539062	-1129.759155273438	31.74546241760254	297.6454772949219	-1315.755859375	33.32001113891602	379.2159729003906	-1186.16064453125	494.7041320800781	584.2341918945312	-1156.390991210938	784.642333984375	623.7750244140625	-1281.798461914062	36.25740814208984	572.2046508789062	-1193.032592773438	352.4665832519531	573.3912963867188	-1059.022216796875	36.37892913818359	541.9605712890625	-1120.191284179688	35.85860061645508	496.697265625	-1149.188598632812	36.80251312255859	597.3453979492188	-1334.124877929688	27.36130714416504	514.9157104492188	-1074.467895507812	718.69482421875	193.0265808105469	
101	1	-1308.715576171875	1019.014282226562	505.2268371582031	-1307.68896484375	1022.293640136719	371.6504516601562	-1303.844604492188	1109.290893554688	434.7318420410156	-1079.18212890625	1294.130859375	422.9127502441406	-1320.748168945312	1234.127197265625	434.25	-1272.881713867188	1507.37109375	442.5914916992188	-1098.378173828125	1405.4052734375	424.476806640625	-1339.46875	1382.869018554688	535.5303344726562	-1309.259399414062	1454.474731445312	350.8121337890625	-1212.080444335938	1476.699829101562	265.7859497070312	-1219.55517578125	1349.176635742188	186.4090728759766	-1188.964721679688	1127.169189453125	164.5299987792969	-1269.737548828125	1114.109008789062	223.2011566162109	-1080.990844726562	889.3346557617188	199.0930328369141	-1132.799682617188	863.6088256835938	133.5717468261719	-1162.89892578125	1041.984619140625	155.8686218261719	-1120.70263671875	803.6068725585938	141.0196228027344	-1061.496459960938	812.8174438476562	175.4130706787109	-1203.816650390625	1468.234741210938	595.1658325195312	-1216.050903320312	1403.161987304688	664.9287109375	-1209.337524414062	1111.656616210938	709.134765625	-1264.898803710938	1094.303833007812	685.756103515625	-1077.290893554688	893.0464477539062	654.8873291015625	-1114.389282226562	872.1982421875	725.0410766601562	-1196.429809570312	1056.338256835938	713.9680786132812	-1062.817749023438	719.844482421875	657.9541625976562	-1046.462524414062	802.1178588867188	666.9248657226562	-1095.388793945312	798.4873657226562	722.5079345703125	-1205.693237304688	1683.552124023438	497.9497985839844	-1041.794921875	1711.203369140625	372.9319458007812	-1068.394653320312	1709.14697265625	514.4417114257812	-1167.612182617188	1684.714965820312	336.322998046875	-1183.087890625	939.2698974609375	239.7562103271484	-1187.548461914062	940.586669921875	625.5184936523438	-1099.8935546875	968.492919921875	567.5858154296875	-1102.407836914062	963.0830688476562	290.1282043457031	-1170.276977539062	493.2015075683594	304.7080383300781	-1163.87060546875	656.7861328125	264.363037109375	-1250.6435546875	29.35872268676758	320.1455993652344	-1235.017578125	249.3654479980469	303.5765686035156	-1037.23828125	36.92282867431641	365.6946105957031	-1107.290405273438	41.66733169555664	404.9604187011719	-1129.7578125	31.74370384216309	297.6446228027344	-1315.757690429688	33.32137298583984	379.2152099609375	-1186.062744140625	494.7037048339844	584.0507202148438	-1156.33544921875	784.6649169921875	623.5535888671875	-1281.797119140625	36.25124740600586	572.2160034179688	-1193.007690429688	352.4826049804688	573.311767578125	-1059.062377929688	36.38298416137695	542.0044555664062	-1120.197631835938	35.86407089233398	496.7074584960938	-1149.192993164062	36.79580688476562	597.3571166992188	-1334.122436523438	27.36026763916016	514.918212890625	-1074.2578125	718.6458740234375	192.7279510498047	
